{
	"asset":{
		"generator":"Khronos glTF Blender I/O v4.0.43",
		"version":"2.0"
	},
	"scene":0,
	"scenes":[
		{
			"name":"Scene",
			"nodes":[
				0,
				1,
				2,
				3,
				4,
				5
			]
		}
	],
	"nodes":[
		{
			"mesh":0,
			"name":"Plane",
			"scale":[
				101.0470962524414,
				101.0470962524414,
				101.0470962524414
			]
		},
		{
			"mesh":1,
			"name":"Rock",
			"translation":[
				0.7221020460128784,
				1.0183079242706299,
				-1.735790491104126
			]
		},
		{
			"mesh":2,
			"name":"Rock.001",
			"rotation":[
				-0.5848265886306763,
				-0.32571181654930115,
				-0.15471157431602478,
				0.7266044616699219
			],
			"scale":[
				0.7368901968002319,
				0.7368902564048767,
				0.7368902564048767
			],
			"translation":[
				2.908759593963623,
				0.6191084980964661,
				-1.336176872253418
			]
		},
		{
			"mesh":3,
			"name":"Rock.002",
			"rotation":[
				0,
				-0.452620267868042,
				0,
				0.8917034864425659
			],
			"scale":[
				1.7692517042160034,
				1.769251823425293,
				1.7692517042160034
			],
			"translation":[
				2.6615283489227295,
				1.5415136814117432,
				2.3502776622772217
			]
		},
		{
			"mesh":4,
			"name":"Rock.003",
			"rotation":[
				-0.5848265886306763,
				-0.32571178674697876,
				-0.1547115594148636,
				0.7266044616699219
			],
			"scale":[
				1.1839317083358765,
				1.1839320659637451,
				1.1839320659637451
			],
			"translation":[
				-1.4042891263961792,
				0.7361257672309875,
				-3.3804121017456055
			]
		},
		{
			"mesh":5,
			"name":"Rock.004",
			"rotation":[
				0,
				-0.4526202082633972,
				0,
				0.8917034268379211
			],
			"scale":[
				2.7715582847595215,
				2.7715580463409424,
				2.7715582847595215
			],
			"translation":[
				-5.481154441833496,
				2.4711720943450928,
				-1.3480520248413086
			]
		}
	],
	"animations":[
		{
			"channels":[
				{
					"sampler":0,
					"target":{
						"node":1,
						"path":"rotation"
					}
				}
			],
			"name":"RockAction",
			"samplers":[
				{
					"input":22,
					"interpolation":"LINEAR",
					"output":23
				}
			]
		},
		{
			"channels":[
				{
					"sampler":0,
					"target":{
						"node":2,
						"path":"rotation"
					}
				}
			],
			"name":"Rock.001Action",
			"samplers":[
				{
					"input":22,
					"interpolation":"LINEAR",
					"output":24
				}
			]
		},
		{
			"channels":[
				{
					"sampler":0,
					"target":{
						"node":3,
						"path":"rotation"
					}
				}
			],
			"name":"Rock.002Action",
			"samplers":[
				{
					"input":22,
					"interpolation":"LINEAR",
					"output":25
				}
			]
		},
		{
			"channels":[
				{
					"sampler":0,
					"target":{
						"node":4,
						"path":"rotation"
					}
				}
			],
			"name":"Rock.003Action",
			"samplers":[
				{
					"input":22,
					"interpolation":"LINEAR",
					"output":26
				}
			]
		},
		{
			"channels":[
				{
					"sampler":0,
					"target":{
						"node":5,
						"path":"rotation"
					}
				}
			],
			"name":"Rock.004Action",
			"samplers":[
				{
					"input":22,
					"interpolation":"LINEAR",
					"output":27
				}
			]
		}
	],
	"materials":[
		{
			"doubleSided":true,
			"name":"Material.002",
			"pbrMetallicRoughness":{
				"baseColorFactor":[
					0.16999010741710663,
					0.12845660746097565,
					0.06934180855751038,
					1
				],
				"metallicFactor":0,
				"roughnessFactor":0.5
			}
		},
		{
			"doubleSided":true,
			"name":"Material.004",
			"pbrMetallicRoughness":{
				"baseColorFactor":[
					0.5518393516540527,
					0.8000000715255737,
					0.15856152772903442,
					1
				],
				"metallicFactor":0,
				"roughnessFactor":0.5
			}
		},
		{
			"doubleSided":true,
			"name":"Material.003",
			"pbrMetallicRoughness":{
				"baseColorFactor":[
					0.8000000715255737,
					0.11446736007928848,
					0.022284550592303276,
					1
				],
				"metallicFactor":0,
				"roughnessFactor":0.5
			}
		},
		{
			"doubleSided":true,
			"name":"Material.001",
			"pbrMetallicRoughness":{
				"baseColorFactor":[
					0.8000000715255737,
					0.5770771503448486,
					0.10944035649299622,
					1
				],
				"metallicFactor":0,
				"roughnessFactor":0.5
			}
		},
		{
			"doubleSided":true,
			"name":"ConcretePrecastPlates004_PREVIEW",
			"pbrMetallicRoughness":{}
		},
		{
			"doubleSided":true,
			"name":"PlasterPlain001_1K",
			"pbrMetallicRoughness":{}
		}
	],
	"meshes":[
		{
			"name":"Plane",
			"primitives":[
				{
					"attributes":{
						"POSITION":0,
						"NORMAL":1,
						"TEXCOORD_0":2
					},
					"indices":3,
					"material":0
				}
			]
		},
		{
			"name":"Icosphere",
			"primitives":[
				{
					"attributes":{
						"POSITION":4,
						"NORMAL":5,
						"TEXCOORD_0":6
					},
					"indices":7,
					"material":1
				}
			]
		},
		{
			"name":"Icosphere.001",
			"primitives":[
				{
					"attributes":{
						"POSITION":8,
						"NORMAL":9,
						"TEXCOORD_0":10
					},
					"indices":7,
					"material":2
				}
			]
		},
		{
			"name":"Icosphere.002",
			"primitives":[
				{
					"attributes":{
						"POSITION":11,
						"NORMAL":12,
						"TEXCOORD_0":13
					},
					"indices":14,
					"material":3
				}
			]
		},
		{
			"name":"Icosphere.003",
			"primitives":[
				{
					"attributes":{
						"POSITION":15,
						"NORMAL":16,
						"TEXCOORD_0":17
					},
					"indices":7,
					"material":4
				}
			]
		},
		{
			"name":"Icosphere.004",
			"primitives":[
				{
					"attributes":{
						"POSITION":18,
						"NORMAL":19,
						"TEXCOORD_0":20
					},
					"indices":21,
					"material":5
				}
			]
		}
	],
	"accessors":[
		{
			"bufferView":0,
			"componentType":5126,
			"count":4,
			"max":[
				1,
				0,
				1
			],
			"min":[
				-1,
				0,
				-1
			],
			"type":"VEC3"
		},
		{
			"bufferView":1,
			"componentType":5126,
			"count":4,
			"type":"VEC3"
		},
		{
			"bufferView":2,
			"componentType":5126,
			"count":4,
			"type":"VEC2"
		},
		{
			"bufferView":3,
			"componentType":5123,
			"count":6,
			"type":"SCALAR"
		},
		{
			"bufferView":4,
			"componentType":5126,
			"count":132,
			"max":[
				0.854759693145752,
				1.3008698225021362,
				0.8506399989128113
			],
			"min":[
				-0.8944249749183655,
				-1.011784553527832,
				-0.8506399989128113
			],
			"type":"VEC3"
		},
		{
			"bufferView":5,
			"componentType":5126,
			"count":132,
			"type":"VEC3"
		},
		{
			"bufferView":6,
			"componentType":5126,
			"count":132,
			"type":"VEC2"
		},
		{
			"bufferView":7,
			"componentType":5123,
			"count":210,
			"type":"SCALAR"
		},
		{
			"bufferView":8,
			"componentType":5126,
			"count":132,
			"max":[
				0.854759693145752,
				1.3008698225021362,
				0.8506399989128113
			],
			"min":[
				-0.8944249749183655,
				-1.011784553527832,
				-0.8506399989128113
			],
			"type":"VEC3"
		},
		{
			"bufferView":9,
			"componentType":5126,
			"count":132,
			"type":"VEC3"
		},
		{
			"bufferView":10,
			"componentType":5126,
			"count":132,
			"type":"VEC2"
		},
		{
			"bufferView":11,
			"componentType":5126,
			"count":164,
			"max":[
				0.854759693145752,
				1.3008698225021362,
				0.8506399989128113
			],
			"min":[
				-0.8944249749183655,
				-1.011784553527832,
				-0.8506399989128113
			],
			"type":"VEC3"
		},
		{
			"bufferView":12,
			"componentType":5126,
			"count":164,
			"type":"VEC3"
		},
		{
			"bufferView":13,
			"componentType":5126,
			"count":164,
			"type":"VEC2"
		},
		{
			"bufferView":14,
			"componentType":5123,
			"count":210,
			"type":"SCALAR"
		},
		{
			"bufferView":15,
			"componentType":5126,
			"count":132,
			"max":[
				0.854759693145752,
				1.3008698225021362,
				0.8506399989128113
			],
			"min":[
				-0.8944249749183655,
				-1.011784553527832,
				-0.8506399989128113
			],
			"type":"VEC3"
		},
		{
			"bufferView":16,
			"componentType":5126,
			"count":132,
			"type":"VEC3"
		},
		{
			"bufferView":17,
			"componentType":5126,
			"count":132,
			"type":"VEC2"
		},
		{
			"bufferView":18,
			"componentType":5126,
			"count":146,
			"max":[
				0.854759693145752,
				1.300868034362793,
				0.8506399989128113
			],
			"min":[
				-0.8944249749183655,
				-1.011784553527832,
				-1.0932950973510742
			],
			"type":"VEC3"
		},
		{
			"bufferView":19,
			"componentType":5126,
			"count":146,
			"type":"VEC3"
		},
		{
			"bufferView":20,
			"componentType":5126,
			"count":146,
			"type":"VEC2"
		},
		{
			"bufferView":21,
			"componentType":5123,
			"count":234,
			"type":"SCALAR"
		},
		{
			"bufferView":22,
			"componentType":5126,
			"count":241,
			"max":[
				10
			],
			"min":[
				0
			],
			"type":"SCALAR"
		},
		{
			"bufferView":23,
			"componentType":5126,
			"count":241,
			"type":"VEC4"
		},
		{
			"bufferView":24,
			"componentType":5126,
			"count":241,
			"type":"VEC4"
		},
		{
			"bufferView":25,
			"componentType":5126,
			"count":241,
			"type":"VEC4"
		},
		{
			"bufferView":26,
			"componentType":5126,
			"count":241,
			"type":"VEC4"
		},
		{
			"bufferView":27,
			"componentType":5126,
			"count":241,
			"type":"VEC4"
		}
	],
	"bufferViews":[
		{
			"buffer":0,
			"byteLength":48,
			"byteOffset":0,
			"target":34962
		},
		{
			"buffer":0,
			"byteLength":48,
			"byteOffset":48,
			"target":34962
		},
		{
			"buffer":0,
			"byteLength":32,
			"byteOffset":96,
			"target":34962
		},
		{
			"buffer":0,
			"byteLength":12,
			"byteOffset":128,
			"target":34963
		},
		{
			"buffer":0,
			"byteLength":1584,
			"byteOffset":140,
			"target":34962
		},
		{
			"buffer":0,
			"byteLength":1584,
			"byteOffset":1724,
			"target":34962
		},
		{
			"buffer":0,
			"byteLength":1056,
			"byteOffset":3308,
			"target":34962
		},
		{
			"buffer":0,
			"byteLength":420,
			"byteOffset":4364,
			"target":34963
		},
		{
			"buffer":0,
			"byteLength":1584,
			"byteOffset":4784,
			"target":34962
		},
		{
			"buffer":0,
			"byteLength":1584,
			"byteOffset":6368,
			"target":34962
		},
		{
			"buffer":0,
			"byteLength":1056,
			"byteOffset":7952,
			"target":34962
		},
		{
			"buffer":0,
			"byteLength":1968,
			"byteOffset":9008,
			"target":34962
		},
		{
			"buffer":0,
			"byteLength":1968,
			"byteOffset":10976,
			"target":34962
		},
		{
			"buffer":0,
			"byteLength":1312,
			"byteOffset":12944,
			"target":34962
		},
		{
			"buffer":0,
			"byteLength":420,
			"byteOffset":14256,
			"target":34963
		},
		{
			"buffer":0,
			"byteLength":1584,
			"byteOffset":14676,
			"target":34962
		},
		{
			"buffer":0,
			"byteLength":1584,
			"byteOffset":16260,
			"target":34962
		},
		{
			"buffer":0,
			"byteLength":1056,
			"byteOffset":17844,
			"target":34962
		},
		{
			"buffer":0,
			"byteLength":1752,
			"byteOffset":18900,
			"target":34962
		},
		{
			"buffer":0,
			"byteLength":1752,
			"byteOffset":20652,
			"target":34962
		},
		{
			"buffer":0,
			"byteLength":1168,
			"byteOffset":22404,
			"target":34962
		},
		{
			"buffer":0,
			"byteLength":468,
			"byteOffset":23572,
			"target":34963
		},
		{
			"buffer":0,
			"byteLength":964,
			"byteOffset":24040
		},
		{
			"buffer":0,
			"byteLength":3856,
			"byteOffset":25004
		},
		{
			"buffer":0,
			"byteLength":3856,
			"byteOffset":28860
		},
		{
			"buffer":0,
			"byteLength":3856,
			"byteOffset":32716
		},
		{
			"buffer":0,
			"byteLength":3856,
			"byteOffset":36572
		},
		{
			"buffer":0,
			"byteLength":3856,
			"byteOffset":40428
		}
	],
	"buffers":[
		{
			"byteLength":44284,
			"uri":"object.bin"
		}
	]
}
