{
	"asset":{
		"generator":"Khronos glTF Blender I/O v4.0.43",
		"version":"2.0"
	},
	"extensionsUsed":[
		"KHR_materials_emissive_strength"
	],
	"scene":0,
	"scenes":[
		{
			"name":"Scene",
			"nodes":[
				0,
				1,
				2,
				3,
				4,
				5,
				6,
				7,
				8,
				9
			]
		}
	],
	"nodes":[
		{
			"mesh":0,
			"name":"Cube.001",
			"rotation":[
				0,
				0,
				-0.7709136009216309,
				0.6369397044181824
			],
			"translation":[
				-6.619450092315674,
				24.900365829467773,
				0.0009987354278564453
			]
		},
		{
			"mesh":1,
			"name":"Cube.002",
			"rotation":[
				0,
				0,
				0.5191242694854736,
				0.8546987771987915
			],
			"translation":[
				4.221712112426758,
				22.883827209472656,
				-0.013546746224164963
			]
		},
		{
			"mesh":2,
			"name":"Plane",
			"translation":[
				2.5111193656921387,
				0,
				0
			]
		},
		{
			"mesh":3,
			"name":"Nut.001",
			"rotation":[
				0,
				0,
				-1,
				4.5964808700763374e-14
			],
			"scale":[
				0.008261187002062798,
				0.008261187002062798,
				0.008261187002062798
			],
			"translation":[
				1.8610581159591675,
				23.350778579711914,
				-2.2115888595581055
			]
		},
		{
			"mesh":4,
			"name":"Bolt and Nut.001",
			"rotation":[
				0,
				-1,
				0,
				1.6292068494294654e-07
			],
			"scale":[
				0.008398777805268764,
				0.008398777805268764,
				0.008398777805268764
			],
			"translation":[
				1.8907252550125122,
				23.373815536499023,
				1.121246337890625
			]
		},
		{
			"mesh":5,
			"name":"Cube.003",
			"translation":[
				6.663875102996826,
				3.527008056640625,
				-0.005024433135986328
			]
		},
		{
			"mesh":6,
			"name":"Cube.004",
			"translation":[
				5.892909049987793,
				11.152956008911133,
				0.00848245620727539
			]
		},
		{
			"mesh":7,
			"name":"Nut.002",
			"rotation":[
				0,
				0,
				-1,
				4.5964808700763374e-14
			],
			"scale":[
				0.008261187002062798,
				0.008261187002062798,
				0.008261187002062798
			],
			"translation":[
				5.820925712585449,
				20.31794548034668,
				-1.9855948686599731
			]
		},
		{
			"mesh":8,
			"name":"Bolt and Nut.002",
			"rotation":[
				0,
				-1,
				0,
				1.6292068494294654e-07
			],
			"scale":[
				0.008398777805268764,
				0.008398777805268764,
				0.008398777805268764
			],
			"translation":[
				5.850593090057373,
				20.34098243713379,
				1.3472403287887573
			]
		},
		{
			"mesh":9,
			"name":"Plane.002",
			"scale":[
				17.489788055419922,
				17.489788055419922,
				17.489788055419922
			]
		}
	],
	"materials":[
		{
			"doubleSided":true,
			"name":"Material",
			"pbrMetallicRoughness":{
				"baseColorFactor":[
					0.8000000715255737,
					0.3337632119655609,
					0.13161788880825043,
					1
				],
				"metallicFactor":0,
				"roughnessFactor":0.5
			}
		},
		{
			"doubleSided":true,
			"emissiveFactor":[
				1,
				0.9982000589370728,
				0.6291607618331909
			],
			"extensions":{
				"KHR_materials_emissive_strength":{
					"emissiveStrength":1000
				}
			},
			"name":"Material.008",
			"pbrMetallicRoughness":{
				"baseColorFactor":[
					0,
					0,
					0,
					1
				]
			}
		},
		{
			"doubleSided":true,
			"name":"Material.001",
			"pbrMetallicRoughness":{
				"baseColorFactor":[
					0.8000000715255737,
					0.39928412437438965,
					0.016457408666610718,
					1
				],
				"metallicFactor":0,
				"roughnessFactor":0.5
			}
		},
		{
			"doubleSided":true,
			"name":"Material.004",
			"pbrMetallicRoughness":{
				"baseColorFactor":[
					0.08714038878679276,
					0.04945198819041252,
					0.016496160998940468,
					1
				],
				"metallicFactor":0,
				"roughnessFactor":0.5
			}
		},
		{
			"doubleSided":true,
			"name":"Metal_-_Galvanized_Steel",
			"pbrMetallicRoughness":{
				"baseColorFactor":[
					0.02771834284067154,
					0.02771834284067154,
					0.02771834284067154,
					1
				],
				"metallicFactor":0,
				"roughnessFactor":0.5
			}
		},
		{
			"doubleSided":true,
			"name":"Metal_-_Galvanized_Steel.001",
			"pbrMetallicRoughness":{
				"baseColorFactor":[
					0.06045158952474594,
					0.06045158952474594,
					0.06045158952474594,
					1
				],
				"metallicFactor":0,
				"roughnessFactor":0.5
			}
		},
		{
			"doubleSided":true,
			"name":"Material.006",
			"pbrMetallicRoughness":{
				"baseColorFactor":[
					0.01980704255402088,
					0.039679642766714096,
					0.007406575605273247,
					1
				],
				"metallicFactor":0,
				"roughnessFactor":0.5
			}
		},
		{
			"doubleSided":true,
			"name":"Material.007",
			"pbrMetallicRoughness":{
				"baseColorFactor":[
					0.8000000715255737,
					0.03434807434678078,
					0.027452409267425537,
					1
				],
				"metallicFactor":0,
				"roughnessFactor":0.5
			}
		},
		{
			"doubleSided":true,
			"name":"Material.009",
			"pbrMetallicRoughness":{
				"baseColorFactor":[
					0.8000000715255737,
					0.2580254375934601,
					0.0540604367852211,
					1
				],
				"metallicFactor":0,
				"roughnessFactor":0.5
			}
		},
		{
			"doubleSided":true,
			"name":"Material.005",
			"pbrMetallicRoughness":{
				"baseColorFactor":[
					0.05339190363883972,
					0.05780293792486191,
					0.03009331226348877,
					1
				],
				"metallicFactor":0,
				"roughnessFactor":0.5
			}
		}
	],
	"meshes":[
		{
			"name":"Cube",
			"primitives":[
				{
					"attributes":{
						"POSITION":0,
						"NORMAL":1,
						"TEXCOORD_0":2
					},
					"indices":3,
					"material":0
				},
				{
					"attributes":{
						"POSITION":4,
						"NORMAL":5,
						"TEXCOORD_0":6
					},
					"indices":7,
					"material":1
				}
			]
		},
		{
			"name":"Cube.001",
			"primitives":[
				{
					"attributes":{
						"POSITION":8,
						"NORMAL":9,
						"TEXCOORD_0":10
					},
					"indices":11,
					"material":2
				}
			]
		},
		{
			"name":"Plane",
			"primitives":[
				{
					"attributes":{
						"POSITION":12,
						"NORMAL":13,
						"TEXCOORD_0":14
					},
					"indices":15,
					"material":3
				}
			]
		},
		{
			"name":"Nut.001",
			"primitives":[
				{
					"attributes":{
						"POSITION":16,
						"NORMAL":17,
						"TEXCOORD_0":18
					},
					"indices":19,
					"material":4
				}
			]
		},
		{
			"name":"Bolt and Nut.001",
			"primitives":[
				{
					"attributes":{
						"POSITION":20,
						"NORMAL":21,
						"TEXCOORD_0":22
					},
					"indices":23,
					"material":5
				}
			]
		},
		{
			"name":"Cube.002",
			"primitives":[
				{
					"attributes":{
						"POSITION":24,
						"NORMAL":25,
						"TEXCOORD_0":26
					},
					"indices":27,
					"material":6
				},
				{
					"attributes":{
						"POSITION":28,
						"NORMAL":29,
						"TEXCOORD_0":30
					},
					"indices":31,
					"material":7
				}
			]
		},
		{
			"name":"Cube.003",
			"primitives":[
				{
					"attributes":{
						"POSITION":32,
						"NORMAL":33,
						"TEXCOORD_0":34
					},
					"indices":35,
					"material":0
				},
				{
					"attributes":{
						"POSITION":36,
						"NORMAL":37,
						"TEXCOORD_0":38
					},
					"indices":39,
					"material":8
				}
			]
		},
		{
			"name":"Nut.002",
			"primitives":[
				{
					"attributes":{
						"POSITION":40,
						"NORMAL":41,
						"TEXCOORD_0":42
					},
					"indices":19,
					"material":4
				}
			]
		},
		{
			"name":"Bolt and Nut.002",
			"primitives":[
				{
					"attributes":{
						"POSITION":43,
						"NORMAL":44,
						"TEXCOORD_0":45
					},
					"indices":23,
					"material":5
				}
			]
		},
		{
			"name":"Plane.002",
			"primitives":[
				{
					"attributes":{
						"POSITION":46,
						"NORMAL":47,
						"TEXCOORD_0":48
					},
					"indices":49,
					"material":9
				}
			]
		}
	],
	"accessors":[
		{
			"bufferView":0,
			"componentType":5126,
			"count":155,
			"max":[
				1.0572128295898438,
				10.963154792785645,
				1.8516931533813477
			],
			"min":[
				-1,
				-10.963154792785645,
				-1.8516931533813477
			],
			"type":"VEC3"
		},
		{
			"bufferView":1,
			"componentType":5126,
			"count":155,
			"type":"VEC3"
		},
		{
			"bufferView":2,
			"componentType":5126,
			"count":155,
			"type":"VEC2"
		},
		{
			"bufferView":3,
			"componentType":5123,
			"count":492,
			"type":"SCALAR"
		},
		{
			"bufferView":4,
			"componentType":5126,
			"count":6,
			"max":[
				1.0572128295898438,
				6.601511001586914,
				0.7498018145561218
			],
			"min":[
				1.0572128295898438,
				-9.934944152832031,
				-0.7498018145561218
			],
			"type":"VEC3"
		},
		{
			"bufferView":5,
			"componentType":5126,
			"count":6,
			"type":"VEC3"
		},
		{
			"bufferView":6,
			"componentType":5126,
			"count":6,
			"type":"VEC2"
		},
		{
			"bufferView":7,
			"componentType":5123,
			"count":12,
			"type":"SCALAR"
		},
		{
			"bufferView":8,
			"componentType":5126,
			"count":43,
			"max":[
				0.5353049635887146,
				3.162970542907715,
				0.7919019460678101
			],
			"min":[
				-0.5353049635887146,
				-3.162970542907715,
				-0.7919019460678101
			],
			"type":"VEC3"
		},
		{
			"bufferView":9,
			"componentType":5126,
			"count":43,
			"type":"VEC3"
		},
		{
			"bufferView":10,
			"componentType":5126,
			"count":43,
			"type":"VEC2"
		},
		{
			"bufferView":11,
			"componentType":5123,
			"count":132,
			"type":"SCALAR"
		},
		{
			"bufferView":12,
			"componentType":5126,
			"count":12,
			"max":[
				7.435700416564941,
				0.183577761054039,
				4.4657979011535645
			],
			"min":[
				-7.435700416564941,
				0,
				-4.4657979011535645
			],
			"type":"VEC3"
		},
		{
			"bufferView":13,
			"componentType":5126,
			"count":12,
			"type":"VEC3"
		},
		{
			"bufferView":14,
			"componentType":5126,
			"count":12,
			"type":"VEC2"
		},
		{
			"bufferView":15,
			"componentType":5123,
			"count":60,
			"type":"SCALAR"
		},
		{
			"bufferView":16,
			"componentType":5126,
			"count":171,
			"max":[
				101,
				87.46853637695312,
				39.999298095703125
			],
			"min":[
				-101,
				-87.46861267089844,
				-40.000701904296875
			],
			"type":"VEC3"
		},
		{
			"bufferView":17,
			"componentType":5126,
			"count":171,
			"type":"VEC3"
		},
		{
			"bufferView":18,
			"componentType":5126,
			"count":171,
			"type":"VEC2"
		},
		{
			"bufferView":19,
			"componentType":5123,
			"count":504,
			"type":"SCALAR"
		},
		{
			"bufferView":20,
			"componentType":5126,
			"count":100498,
			"max":[
				100,
				86.6025390625,
				525.9699096679688
			],
			"min":[
				-100,
				-86.6025390625,
				-138.50424194335938
			],
			"type":"VEC3"
		},
		{
			"bufferView":21,
			"componentType":5126,
			"count":100498,
			"type":"VEC3"
		},
		{
			"bufferView":22,
			"componentType":5126,
			"count":100498,
			"type":"VEC2"
		},
		{
			"bufferView":23,
			"componentType":5125,
			"count":593106,
			"type":"SCALAR"
		},
		{
			"bufferView":24,
			"componentType":5126,
			"count":22,
			"max":[
				0.7336036562919617,
				0.5519868731498718,
				0.5519868731498718
			],
			"min":[
				-0.5519868731498718,
				-0.5519868731498718,
				-0.5519868731498718
			],
			"type":"VEC3"
		},
		{
			"bufferView":25,
			"componentType":5126,
			"count":22,
			"type":"VEC3"
		},
		{
			"bufferView":26,
			"componentType":5126,
			"count":22,
			"type":"VEC2"
		},
		{
			"bufferView":27,
			"componentType":5123,
			"count":78,
			"type":"SCALAR"
		},
		{
			"bufferView":28,
			"componentType":5126,
			"count":4,
			"max":[
				0.7336036562919617,
				0.3767319619655609,
				0.3767319619655609
			],
			"min":[
				0.7336036562919617,
				-0.3767319619655609,
				-0.3767319619655609
			],
			"type":"VEC3"
		},
		{
			"bufferView":29,
			"componentType":5126,
			"count":4,
			"type":"VEC3"
		},
		{
			"bufferView":30,
			"componentType":5126,
			"count":4,
			"type":"VEC2"
		},
		{
			"bufferView":31,
			"componentType":5123,
			"count":6,
			"type":"SCALAR"
		},
		{
			"bufferView":32,
			"componentType":5126,
			"count":169,
			"max":[
				1.0572128295898438,
				10.963154792785645,
				1.8516931533813477
			],
			"min":[
				-1,
				-10.963154792785645,
				-1.8516931533813477
			],
			"type":"VEC3"
		},
		{
			"bufferView":33,
			"componentType":5126,
			"count":169,
			"type":"VEC3"
		},
		{
			"bufferView":34,
			"componentType":5126,
			"count":169,
			"type":"VEC2"
		},
		{
			"bufferView":35,
			"componentType":5123,
			"count":513,
			"type":"SCALAR"
		},
		{
			"bufferView":36,
			"componentType":5126,
			"count":7,
			"max":[
				1.0572128295898438,
				6.58125638961792,
				0.7183133959770203
			],
			"min":[
				1.0572128295898438,
				-9.934944152832031,
				-0.7113746404647827
			],
			"type":"VEC3"
		},
		{
			"bufferView":37,
			"componentType":5126,
			"count":7,
			"type":"VEC3"
		},
		{
			"bufferView":38,
			"componentType":5126,
			"count":7,
			"type":"VEC2"
		},
		{
			"bufferView":39,
			"componentType":5123,
			"count":12,
			"type":"SCALAR"
		},
		{
			"bufferView":40,
			"componentType":5126,
			"count":171,
			"max":[
				101,
				87.46853637695312,
				39.999298095703125
			],
			"min":[
				-101,
				-87.46861267089844,
				-40.000701904296875
			],
			"type":"VEC3"
		},
		{
			"bufferView":41,
			"componentType":5126,
			"count":171,
			"type":"VEC3"
		},
		{
			"bufferView":42,
			"componentType":5126,
			"count":171,
			"type":"VEC2"
		},
		{
			"bufferView":43,
			"componentType":5126,
			"count":100498,
			"max":[
				100,
				86.6025390625,
				525.9699096679688
			],
			"min":[
				-100,
				-86.6025390625,
				-138.50424194335938
			],
			"type":"VEC3"
		},
		{
			"bufferView":44,
			"componentType":5126,
			"count":100498,
			"type":"VEC3"
		},
		{
			"bufferView":45,
			"componentType":5126,
			"count":100498,
			"type":"VEC2"
		},
		{
			"bufferView":46,
			"componentType":5126,
			"count":4,
			"max":[
				1,
				0,
				1
			],
			"min":[
				-1,
				0,
				-1
			],
			"type":"VEC3"
		},
		{
			"bufferView":47,
			"componentType":5126,
			"count":4,
			"type":"VEC3"
		},
		{
			"bufferView":48,
			"componentType":5126,
			"count":4,
			"type":"VEC2"
		},
		{
			"bufferView":49,
			"componentType":5123,
			"count":6,
			"type":"SCALAR"
		}
	],
	"bufferViews":[
		{
			"buffer":0,
			"byteLength":1860,
			"byteOffset":0,
			"target":34962
		},
		{
			"buffer":0,
			"byteLength":1860,
			"byteOffset":1860,
			"target":34962
		},
		{
			"buffer":0,
			"byteLength":1240,
			"byteOffset":3720,
			"target":34962
		},
		{
			"buffer":0,
			"byteLength":984,
			"byteOffset":4960,
			"target":34963
		},
		{
			"buffer":0,
			"byteLength":72,
			"byteOffset":5944,
			"target":34962
		},
		{
			"buffer":0,
			"byteLength":72,
			"byteOffset":6016,
			"target":34962
		},
		{
			"buffer":0,
			"byteLength":48,
			"byteOffset":6088,
			"target":34962
		},
		{
			"buffer":0,
			"byteLength":24,
			"byteOffset":6136,
			"target":34963
		},
		{
			"buffer":0,
			"byteLength":516,
			"byteOffset":6160,
			"target":34962
		},
		{
			"buffer":0,
			"byteLength":516,
			"byteOffset":6676,
			"target":34962
		},
		{
			"buffer":0,
			"byteLength":344,
			"byteOffset":7192,
			"target":34962
		},
		{
			"buffer":0,
			"byteLength":264,
			"byteOffset":7536,
			"target":34963
		},
		{
			"buffer":0,
			"byteLength":144,
			"byteOffset":7800,
			"target":34962
		},
		{
			"buffer":0,
			"byteLength":144,
			"byteOffset":7944,
			"target":34962
		},
		{
			"buffer":0,
			"byteLength":96,
			"byteOffset":8088,
			"target":34962
		},
		{
			"buffer":0,
			"byteLength":120,
			"byteOffset":8184,
			"target":34963
		},
		{
			"buffer":0,
			"byteLength":2052,
			"byteOffset":8304,
			"target":34962
		},
		{
			"buffer":0,
			"byteLength":2052,
			"byteOffset":10356,
			"target":34962
		},
		{
			"buffer":0,
			"byteLength":1368,
			"byteOffset":12408,
			"target":34962
		},
		{
			"buffer":0,
			"byteLength":1008,
			"byteOffset":13776,
			"target":34963
		},
		{
			"buffer":0,
			"byteLength":1205976,
			"byteOffset":14784,
			"target":34962
		},
		{
			"buffer":0,
			"byteLength":1205976,
			"byteOffset":1220760,
			"target":34962
		},
		{
			"buffer":0,
			"byteLength":803984,
			"byteOffset":2426736,
			"target":34962
		},
		{
			"buffer":0,
			"byteLength":2372424,
			"byteOffset":3230720,
			"target":34963
		},
		{
			"buffer":0,
			"byteLength":264,
			"byteOffset":5603144,
			"target":34962
		},
		{
			"buffer":0,
			"byteLength":264,
			"byteOffset":5603408,
			"target":34962
		},
		{
			"buffer":0,
			"byteLength":176,
			"byteOffset":5603672,
			"target":34962
		},
		{
			"buffer":0,
			"byteLength":156,
			"byteOffset":5603848,
			"target":34963
		},
		{
			"buffer":0,
			"byteLength":48,
			"byteOffset":5604004,
			"target":34962
		},
		{
			"buffer":0,
			"byteLength":48,
			"byteOffset":5604052,
			"target":34962
		},
		{
			"buffer":0,
			"byteLength":32,
			"byteOffset":5604100,
			"target":34962
		},
		{
			"buffer":0,
			"byteLength":12,
			"byteOffset":5604132,
			"target":34963
		},
		{
			"buffer":0,
			"byteLength":2028,
			"byteOffset":5604144,
			"target":34962
		},
		{
			"buffer":0,
			"byteLength":2028,
			"byteOffset":5606172,
			"target":34962
		},
		{
			"buffer":0,
			"byteLength":1352,
			"byteOffset":5608200,
			"target":34962
		},
		{
			"buffer":0,
			"byteLength":1026,
			"byteOffset":5609552,
			"target":34963
		},
		{
			"buffer":0,
			"byteLength":84,
			"byteOffset":5610580,
			"target":34962
		},
		{
			"buffer":0,
			"byteLength":84,
			"byteOffset":5610664,
			"target":34962
		},
		{
			"buffer":0,
			"byteLength":56,
			"byteOffset":5610748,
			"target":34962
		},
		{
			"buffer":0,
			"byteLength":24,
			"byteOffset":5610804,
			"target":34963
		},
		{
			"buffer":0,
			"byteLength":2052,
			"byteOffset":5610828,
			"target":34962
		},
		{
			"buffer":0,
			"byteLength":2052,
			"byteOffset":5612880,
			"target":34962
		},
		{
			"buffer":0,
			"byteLength":1368,
			"byteOffset":5614932,
			"target":34962
		},
		{
			"buffer":0,
			"byteLength":1205976,
			"byteOffset":5616300,
			"target":34962
		},
		{
			"buffer":0,
			"byteLength":1205976,
			"byteOffset":6822276,
			"target":34962
		},
		{
			"buffer":0,
			"byteLength":803984,
			"byteOffset":8028252,
			"target":34962
		},
		{
			"buffer":0,
			"byteLength":48,
			"byteOffset":8832236,
			"target":34962
		},
		{
			"buffer":0,
			"byteLength":48,
			"byteOffset":8832284,
			"target":34962
		},
		{
			"buffer":0,
			"byteLength":32,
			"byteOffset":8832332,
			"target":34962
		},
		{
			"buffer":0,
			"byteLength":12,
			"byteOffset":8832364,
			"target":34963
		}
	],
	"buffers":[
		{
			"byteLength":8832376,
			"uri":"object.bin"
		}
	]
}
