{
	"asset":{
		"generator":"Khronos glTF Blender I/O v4.0.43",
		"version":"2.0"
	},
	"scene":0,
	"scenes":[
		{
			"name":"Scene",
			"nodes":[
				0,
				1,
				2
			]
		}
	],
	"nodes":[
		{
			"mesh":0,
			"name":"Donut"
		},
		{
			"mesh":1,
			"name":"Icing",
			"scale":[
				1.0499963760375977,
				1.0499999523162842,
				1.0499999523162842
			]
		},
		{
			"mesh":2,
			"name":"SingleSprincle",
			"translation":[
				0.04570504277944565,
				-0.08427335321903229,
				0.062314193695783615
			]
		}
	],
	"materials":[
		{
			"doubleSided":true,
			"name":"Donut",
			"pbrMetallicRoughness":{
				"baseColorTexture":{
					"index":0
				},
				"metallicFactor":0,
				"roughnessFactor":0.5
			}
		},
		{
			"doubleSided":true,
			"name":"Icing",
			"pbrMetallicRoughness":{
				"baseColorFactor":[
					0.13938230276107788,
					0.016963591799139977,
					0.014959883876144886,
					1
				],
				"metallicFactor":0,
				"roughnessFactor":0.17914441227912903
			}
		},
		{
			"doubleSided":true,
			"name":"SprincleColor",
			"pbrMetallicRoughness":{
				"metallicFactor":0,
				"roughnessFactor":0.5
			}
		}
	],
	"meshes":[
		{
			"name":"Torus.001",
			"primitives":[
				{
					"attributes":{
						"POSITION":0,
						"NORMAL":1,
						"TEXCOORD_0":2
					},
					"indices":3,
					"material":0
				}
			]
		},
		{
			"name":"Torus.002",
			"primitives":[
				{
					"attributes":{
						"POSITION":4,
						"NORMAL":5,
						"TEXCOORD_0":6
					},
					"indices":7,
					"material":1
				}
			]
		},
		{
			"name":"Cylinder.001",
			"primitives":[
				{
					"attributes":{
						"POSITION":8,
						"NORMAL":9,
						"TEXCOORD_0":10
					},
					"indices":11,
					"material":2
				}
			]
		}
	],
	"textures":[
		{
			"sampler":0,
			"source":0
		}
	],
	"images":[
		{
			"mimeType":"image/png",
			"name":"donut_base",
			"uri":"donut_base.png"
		}
	],
	"accessors":[
		{
			"bufferView":0,
			"componentType":5126,
			"count":5265,
			"max":[
				0.040596555918455124,
				0.01986123062670231,
				0.04059641808271408
			],
			"min":[
				-0.04107186570763588,
				-0.016543950885534286,
				-0.04051120579242706
			],
			"type":"VEC3"
		},
		{
			"bufferView":1,
			"componentType":5126,
			"count":5265,
			"type":"VEC3"
		},
		{
			"bufferView":2,
			"componentType":5126,
			"count":5265,
			"type":"VEC2"
		},
		{
			"bufferView":3,
			"componentType":5123,
			"count":30720,
			"type":"SCALAR"
		},
		{
			"bufferView":4,
			"componentType":5126,
			"count":23240,
			"max":[
				0.04098675772547722,
				0.02027130499482155,
				0.041779495775699615
			],
			"min":[
				-0.04188481345772743,
				-0.011824660003185272,
				-0.040105339139699936
			],
			"type":"VEC3"
		},
		{
			"bufferView":5,
			"componentType":5126,
			"count":23240,
			"type":"VEC3"
		},
		{
			"bufferView":6,
			"componentType":5126,
			"count":23240,
			"type":"VEC2"
		},
		{
			"bufferView":7,
			"componentType":5123,
			"count":138624,
			"type":"SCALAR"
		},
		{
			"bufferView":8,
			"componentType":5126,
			"count":455,
			"max":[
				0.0014677996514365077,
				0.0025744163431227207,
				0.0021310606971383095
			],
			"min":[
				-0.001084451680071652,
				0.0006010113283991814,
				-0.0021310606971383095
			],
			"type":"VEC3"
		},
		{
			"bufferView":9,
			"componentType":5126,
			"count":455,
			"type":"VEC3"
		},
		{
			"bufferView":10,
			"componentType":5126,
			"count":455,
			"type":"VEC2"
		},
		{
			"bufferView":11,
			"componentType":5123,
			"count":1920,
			"type":"SCALAR"
		}
	],
	"bufferViews":[
		{
			"buffer":0,
			"byteLength":63180,
			"byteOffset":0,
			"target":34962
		},
		{
			"buffer":0,
			"byteLength":63180,
			"byteOffset":63180,
			"target":34962
		},
		{
			"buffer":0,
			"byteLength":42120,
			"byteOffset":126360,
			"target":34962
		},
		{
			"buffer":0,
			"byteLength":61440,
			"byteOffset":168480,
			"target":34963
		},
		{
			"buffer":0,
			"byteLength":278880,
			"byteOffset":229920,
			"target":34962
		},
		{
			"buffer":0,
			"byteLength":278880,
			"byteOffset":508800,
			"target":34962
		},
		{
			"buffer":0,
			"byteLength":185920,
			"byteOffset":787680,
			"target":34962
		},
		{
			"buffer":0,
			"byteLength":277248,
			"byteOffset":973600,
			"target":34963
		},
		{
			"buffer":0,
			"byteLength":5460,
			"byteOffset":1250848,
			"target":34962
		},
		{
			"buffer":0,
			"byteLength":5460,
			"byteOffset":1256308,
			"target":34962
		},
		{
			"buffer":0,
			"byteLength":3640,
			"byteOffset":1261768,
			"target":34962
		},
		{
			"buffer":0,
			"byteLength":3840,
			"byteOffset":1265408,
			"target":34963
		}
	],
	"samplers":[
		{
			"magFilter":9729,
			"minFilter":9987
		}
	],
	"buffers":[
		{
			"byteLength":1269248,
			"uri":"object.bin"
		}
	]
}
