{
	"asset":{
		"generator":"Khronos glTF Blender I/O v5.0.21",
		"version":"2.0"
	},
	"extensionsUsed":[
		"KHR_materials_specular",
		"KHR_materials_ior"
	],
	"scene":0,
	"scenes":[
		{
			"name":"Scene",
			"nodes":[
				0,
				1,
				2,
				3,
				4,
				5,
				6,
				7,
				8,
				9
			]
		}
	],
	"nodes":[
		{
			"mesh":0,
			"name":"floor.001",
			"scale":[
				10.184691429138184,
				10.184691429138184,
				10.184691429138184
			],
			"translation":[
				0,
				-0.7830420136451721,
				0
			]
		},
		{
			"mesh":1,
			"name":"day",
			"rotation":[
				0.7071068286895752,
				0,
				0,
				0.7071068286895752
			],
			"translation":[
				0.1633319854736328,
				0.03661404550075531,
				0.12999999523162842
			]
		},
		{
			"mesh":2,
			"name":"spiral",
			"rotation":[
				0.5,
				0.5,
				-0.5,
				0.4999999701976776
			],
			"scale":[
				0.17372764647006989,
				0.1714344620704651,
				0.17372764647006989
			],
			"translation":[
				-0.5339370965957642,
				1.2913225889205933,
				0
			]
		},
		{
			"mesh":3,
			"name":"bottom",
			"scale":[
				1,
				0.7675588726997375,
				0.11395066976547241
			]
		},
		{
			"mesh":4,
			"name":"top",
			"translation":[
				0,
				1.051300048828125,
				0
			]
		},
		{
			"mesh":5,
			"name":"month",
			"rotation":[
				0.7071068286895752,
				0,
				0,
				0.7071068286895752
			],
			"translation":[
				-0.9216592907905579,
				-0.5694040656089783,
				0.12999999523162842
			]
		},
		{
			"mesh":6,
			"name":"image_of_day",
			"rotation":[
				0.7071068286895752,
				0,
				0,
				0.7071068286895752
			],
			"scale":[
				0.4560869336128235,
				0.4560869336128235,
				0.3388741910457611
			],
			"translation":[
				-0.3993169367313385,
				0.2648896872997284,
				0.13293974101543427
			]
		},
		{
			"mesh":7,
			"name":"image_of_day_background",
			"rotation":[
				0.7071068286895752,
				0,
				0,
				0.7071068286895752
			],
			"scale":[
				0.48966580629348755,
				0.3481503427028656,
				0.3756655156612396
			],
			"translation":[
				-0.4005134403705597,
				0.2660265266895294,
				0.13110049068927765
			]
		},
		{
			"mesh":8,
			"name":"spiral.001",
			"rotation":[
				0.5,
				0.5,
				-0.5,
				0.4999999701976776
			],
			"scale":[
				0.17372764647006989,
				0.1714344620704651,
				0.17372764647006989
			],
			"translation":[
				0.0003129243850708008,
				1.2913225889205933,
				0
			]
		},
		{
			"mesh":9,
			"name":"spiral.002",
			"rotation":[
				0.5,
				0.5,
				-0.5,
				0.4999999701976776
			],
			"scale":[
				0.17372764647006989,
				0.1714344620704651,
				0.17372764647006989
			],
			"translation":[
				0.5422500967979431,
				1.2913225889205933,
				0
			]
		}
	],
	"materials":[
		{
			"doubleSided":true,
			"name":"floor",
			"pbrMetallicRoughness":{
				"baseColorFactor":[
					0.19243469834327698,
					0.18639026582241058,
					0.10105907171964645,
					1
				],
				"metallicFactor":0.9418604373931885,
				"roughnessFactor":0.09883719682693481
			}
		},
		{
			"doubleSided":true,
			"name":"day",
			"pbrMetallicRoughness":{
				"baseColorFactor":[
					0.15729676187038422,
					0.0112688597291708,
					0.008864262141287327,
					1
				],
				"metallicFactor":0
			}
		},
		{
			"doubleSided":true,
			"name":"spiral",
			"pbrMetallicRoughness":{
				"baseColorFactor":[
					0.24763010442256927,
					0.24357420206069946,
					0.24661247432231903,
					1
				],
				"roughnessFactor":0.5
			}
		},
		{
			"doubleSided":true,
			"extensions":{
				"KHR_materials_specular":{
					"specularColorFactor":[
						0.9351385831832886,
						0.9365547895431519,
						0.9243570566177368
					]
				},
				"KHR_materials_ior":{
					"ior":1.4500000476837158
				}
			},
			"name":"paper",
			"pbrMetallicRoughness":{
				"baseColorFactor":[
					0.6756929755210876,
					0.682774007320404,
					0.6217851042747498,
					1
				],
				"metallicFactor":0.5174418687820435,
				"roughnessFactor":0.47093021869659424
			}
		},
		{
			"doubleSided":true,
			"extensions":{
				"KHR_materials_specular":{
					"specularColorFactor":[
						1.2947368621826172,
						1.2947368621826172,
						1.2947368621826172
					]
				},
				"KHR_materials_ior":{
					"ior":1.4500000476837158
				}
			},
			"name":"top",
			"pbrMetallicRoughness":{
				"baseColorFactor":[
					0.0035914916079491377,
					0.009715848602354527,
					0.03086206130683422,
					1
				],
				"metallicFactor":0.15697674453258514,
				"roughnessFactor":0.819298267364502
			}
		},
		{
			"doubleSided":true,
			"name":"month",
			"pbrMetallicRoughness":{
				"baseColorFactor":[
					0.1878153383731842,
					0.006456894334405661,
					0.0025645417626947165,
					1
				],
				"metallicFactor":0
			}
		},
		{
			"doubleSided":true,
			"name":"image_of_day",
			"pbrMetallicRoughness":{
				"baseColorTexture":{
					"index":0
				},
				"metallicFactor":0,
				"roughnessFactor":0.5
			}
		},
		{
			"doubleSided":true,
			"extensions":{
				"KHR_materials_specular":{
					"specularFactor":0.5649123191833496
				},
				"KHR_materials_ior":{
					"ior":1.4500000476837158
				}
			},
			"name":"Material.001",
			"pbrMetallicRoughness":{
				"baseColorFactor":[
					0.020421616733074188,
					0.02093045972287655,
					0.02250104956328869,
					1
				],
				"metallicFactor":0
			}
		}
	],
	"meshes":[
		{
			"name":"Plane.003",
			"primitives":[
				{
					"attributes":{
						"POSITION":0,
						"NORMAL":1,
						"TEXCOORD_0":2
					},
					"indices":3,
					"material":0
				}
			]
		},
		{
			"name":"Text",
			"primitives":[
				{
					"attributes":{
						"POSITION":4,
						"NORMAL":5,
						"TEXCOORD_0":6
					},
					"indices":7,
					"material":1
				}
			]
		},
		{
			"name":"BezierCircle",
			"primitives":[
				{
					"attributes":{
						"POSITION":8,
						"NORMAL":9,
						"TEXCOORD_0":10
					},
					"indices":11,
					"material":2
				}
			]
		},
		{
			"name":"Cube.002",
			"primitives":[
				{
					"attributes":{
						"POSITION":12,
						"NORMAL":13,
						"TEXCOORD_0":14
					},
					"indices":15,
					"material":3
				}
			]
		},
		{
			"name":"Cube.003",
			"primitives":[
				{
					"attributes":{
						"POSITION":16,
						"NORMAL":17,
						"TEXCOORD_0":18
					},
					"indices":19,
					"material":4
				}
			]
		},
		{
			"name":"Text.001",
			"primitives":[
				{
					"attributes":{
						"POSITION":20,
						"NORMAL":21,
						"TEXCOORD_0":22
					},
					"indices":23,
					"material":5
				}
			]
		},
		{
			"name":"Plane.001",
			"primitives":[
				{
					"attributes":{
						"POSITION":24,
						"NORMAL":25,
						"TEXCOORD_0":26
					},
					"indices":27,
					"material":6
				}
			]
		},
		{
			"name":"Plane.002",
			"primitives":[
				{
					"attributes":{
						"POSITION":28,
						"NORMAL":29,
						"TEXCOORD_0":30
					},
					"indices":31,
					"material":7
				}
			]
		},
		{
			"name":"BezierCircle.003",
			"primitives":[
				{
					"attributes":{
						"POSITION":32,
						"NORMAL":33,
						"TEXCOORD_0":34
					},
					"indices":11,
					"material":2
				}
			]
		},
		{
			"name":"BezierCircle.004",
			"primitives":[
				{
					"attributes":{
						"POSITION":35,
						"NORMAL":36,
						"TEXCOORD_0":37
					},
					"indices":11,
					"material":2
				}
			]
		}
	],
	"textures":[
		{
			"sampler":0,
			"source":0
		}
	],
	"images":[
		{
			"mimeType":"image/jpeg",
			"name":"001",
			"uri":"001.jpg"
		}
	],
	"accessors":[
		{
			"bufferView":0,
			"componentType":5126,
			"count":4,
			"max":[
				1,
				0,
				1
			],
			"min":[
				-0.9818768501281738,
				0,
				-0.9819673895835876
			],
			"type":"VEC3"
		},
		{
			"bufferView":1,
			"componentType":5126,
			"count":4,
			"type":"VEC3"
		},
		{
			"bufferView":2,
			"componentType":5126,
			"count":4,
			"type":"VEC2"
		},
		{
			"bufferView":3,
			"componentType":5123,
			"count":6,
			"type":"SCALAR"
		},
		{
			"bufferView":4,
			"componentType":5126,
			"count":567,
			"max":[
				0.7802433967590332,
				0,
				0.009305655024945736
			],
			"min":[
				0.030780242756009102,
				0,
				-0.526843249797821
			],
			"type":"VEC3"
		},
		{
			"bufferView":5,
			"componentType":5126,
			"count":567,
			"type":"VEC3"
		},
		{
			"bufferView":6,
			"componentType":5126,
			"count":567,
			"type":"VEC2"
		},
		{
			"bufferView":7,
			"componentType":5123,
			"count":1695,
			"type":"SCALAR"
		},
		{
			"bufferView":8,
			"componentType":5126,
			"count":637,
			"max":[
				1.2000000476837158,
				0.20000004768371582,
				1.2000000476837158
			],
			"min":[
				-1.2000000476837158,
				-0.20000004768371582,
				-1.2000000476837158
			],
			"type":"VEC3"
		},
		{
			"bufferView":9,
			"componentType":5126,
			"count":637,
			"type":"VEC3"
		},
		{
			"bufferView":10,
			"componentType":5126,
			"count":637,
			"type":"VEC2"
		},
		{
			"bufferView":11,
			"componentType":5123,
			"count":3456,
			"type":"SCALAR"
		},
		{
			"bufferView":12,
			"componentType":5126,
			"count":126,
			"max":[
				1,
				1,
				1
			],
			"min":[
				-1,
				-1,
				-1
			],
			"type":"VEC3"
		},
		{
			"bufferView":13,
			"componentType":5126,
			"count":126,
			"type":"VEC3"
		},
		{
			"bufferView":14,
			"componentType":5126,
			"count":126,
			"type":"VEC2"
		},
		{
			"bufferView":15,
			"componentType":5123,
			"count":372,
			"type":"SCALAR"
		},
		{
			"bufferView":16,
			"componentType":5126,
			"count":126,
			"max":[
				1.0872819423675537,
				0.27736011147499084,
				0.14019127190113068
			],
			"min":[
				-1.0872819423675537,
				-0.27736011147499084,
				-0.14019127190113068
			],
			"type":"VEC3"
		},
		{
			"bufferView":17,
			"componentType":5126,
			"count":126,
			"type":"VEC3"
		},
		{
			"bufferView":18,
			"componentType":5126,
			"count":126,
			"type":"VEC2"
		},
		{
			"bufferView":19,
			"componentType":5123,
			"count":372,
			"type":"SCALAR"
		},
		{
			"bufferView":20,
			"componentType":5126,
			"count":2300,
			"max":[
				1.8696922063827515,
				0,
				0.0757480263710022
			],
			"min":[
				0.017122404649853706,
				0,
				-0.2774946093559265
			],
			"type":"VEC3"
		},
		{
			"bufferView":21,
			"componentType":5126,
			"count":2300,
			"type":"VEC3"
		},
		{
			"bufferView":22,
			"componentType":5126,
			"count":2300,
			"type":"VEC2"
		},
		{
			"bufferView":23,
			"componentType":5123,
			"count":6876,
			"type":"SCALAR"
		},
		{
			"bufferView":24,
			"componentType":5126,
			"count":4,
			"max":[
				1,
				0,
				1
			],
			"min":[
				-1,
				0,
				-1
			],
			"type":"VEC3"
		},
		{
			"bufferView":25,
			"componentType":5126,
			"count":4,
			"type":"VEC3"
		},
		{
			"bufferView":26,
			"componentType":5126,
			"count":4,
			"type":"VEC2"
		},
		{
			"bufferView":27,
			"componentType":5123,
			"count":6,
			"type":"SCALAR"
		},
		{
			"bufferView":28,
			"componentType":5126,
			"count":832,
			"max":[
				1,
				0,
				1
			],
			"min":[
				-1,
				-0.037086714059114456,
				-1
			],
			"type":"VEC3"
		},
		{
			"bufferView":29,
			"componentType":5126,
			"count":832,
			"type":"VEC3"
		},
		{
			"bufferView":30,
			"componentType":5126,
			"count":832,
			"type":"VEC2"
		},
		{
			"bufferView":31,
			"componentType":5123,
			"count":1242,
			"type":"SCALAR"
		},
		{
			"bufferView":32,
			"componentType":5126,
			"count":637,
			"max":[
				1.2000000476837158,
				0.20000004768371582,
				1.2000000476837158
			],
			"min":[
				-1.2000000476837158,
				-0.20000004768371582,
				-1.2000000476837158
			],
			"type":"VEC3"
		},
		{
			"bufferView":33,
			"componentType":5126,
			"count":637,
			"type":"VEC3"
		},
		{
			"bufferView":34,
			"componentType":5126,
			"count":637,
			"type":"VEC2"
		},
		{
			"bufferView":35,
			"componentType":5126,
			"count":637,
			"max":[
				1.2000000476837158,
				0.20000004768371582,
				1.2000000476837158
			],
			"min":[
				-1.2000000476837158,
				-0.20000004768371582,
				-1.2000000476837158
			],
			"type":"VEC3"
		},
		{
			"bufferView":36,
			"componentType":5126,
			"count":637,
			"type":"VEC3"
		},
		{
			"bufferView":37,
			"componentType":5126,
			"count":637,
			"type":"VEC2"
		}
	],
	"bufferViews":[
		{
			"buffer":0,
			"byteLength":48,
			"byteOffset":0,
			"target":34962
		},
		{
			"buffer":0,
			"byteLength":48,
			"byteOffset":48,
			"target":34962
		},
		{
			"buffer":0,
			"byteLength":32,
			"byteOffset":96,
			"target":34962
		},
		{
			"buffer":0,
			"byteLength":12,
			"byteOffset":128,
			"target":34963
		},
		{
			"buffer":0,
			"byteLength":6804,
			"byteOffset":140,
			"target":34962
		},
		{
			"buffer":0,
			"byteLength":6804,
			"byteOffset":6944,
			"target":34962
		},
		{
			"buffer":0,
			"byteLength":4536,
			"byteOffset":13748,
			"target":34962
		},
		{
			"buffer":0,
			"byteLength":3390,
			"byteOffset":18284,
			"target":34963
		},
		{
			"buffer":0,
			"byteLength":7644,
			"byteOffset":21676,
			"target":34962
		},
		{
			"buffer":0,
			"byteLength":7644,
			"byteOffset":29320,
			"target":34962
		},
		{
			"buffer":0,
			"byteLength":5096,
			"byteOffset":36964,
			"target":34962
		},
		{
			"buffer":0,
			"byteLength":6912,
			"byteOffset":42060,
			"target":34963
		},
		{
			"buffer":0,
			"byteLength":1512,
			"byteOffset":48972,
			"target":34962
		},
		{
			"buffer":0,
			"byteLength":1512,
			"byteOffset":50484,
			"target":34962
		},
		{
			"buffer":0,
			"byteLength":1008,
			"byteOffset":51996,
			"target":34962
		},
		{
			"buffer":0,
			"byteLength":744,
			"byteOffset":53004,
			"target":34963
		},
		{
			"buffer":0,
			"byteLength":1512,
			"byteOffset":53748,
			"target":34962
		},
		{
			"buffer":0,
			"byteLength":1512,
			"byteOffset":55260,
			"target":34962
		},
		{
			"buffer":0,
			"byteLength":1008,
			"byteOffset":56772,
			"target":34962
		},
		{
			"buffer":0,
			"byteLength":744,
			"byteOffset":57780,
			"target":34963
		},
		{
			"buffer":0,
			"byteLength":27600,
			"byteOffset":58524,
			"target":34962
		},
		{
			"buffer":0,
			"byteLength":27600,
			"byteOffset":86124,
			"target":34962
		},
		{
			"buffer":0,
			"byteLength":18400,
			"byteOffset":113724,
			"target":34962
		},
		{
			"buffer":0,
			"byteLength":13752,
			"byteOffset":132124,
			"target":34963
		},
		{
			"buffer":0,
			"byteLength":48,
			"byteOffset":145876,
			"target":34962
		},
		{
			"buffer":0,
			"byteLength":48,
			"byteOffset":145924,
			"target":34962
		},
		{
			"buffer":0,
			"byteLength":32,
			"byteOffset":145972,
			"target":34962
		},
		{
			"buffer":0,
			"byteLength":12,
			"byteOffset":146004,
			"target":34963
		},
		{
			"buffer":0,
			"byteLength":9984,
			"byteOffset":146016,
			"target":34962
		},
		{
			"buffer":0,
			"byteLength":9984,
			"byteOffset":156000,
			"target":34962
		},
		{
			"buffer":0,
			"byteLength":6656,
			"byteOffset":165984,
			"target":34962
		},
		{
			"buffer":0,
			"byteLength":2484,
			"byteOffset":172640,
			"target":34963
		},
		{
			"buffer":0,
			"byteLength":7644,
			"byteOffset":175124,
			"target":34962
		},
		{
			"buffer":0,
			"byteLength":7644,
			"byteOffset":182768,
			"target":34962
		},
		{
			"buffer":0,
			"byteLength":5096,
			"byteOffset":190412,
			"target":34962
		},
		{
			"buffer":0,
			"byteLength":7644,
			"byteOffset":195508,
			"target":34962
		},
		{
			"buffer":0,
			"byteLength":7644,
			"byteOffset":203152,
			"target":34962
		},
		{
			"buffer":0,
			"byteLength":5096,
			"byteOffset":210796,
			"target":34962
		}
	],
	"samplers":[
		{
			"magFilter":9729,
			"minFilter":9987
		}
	],
	"buffers":[
		{
			"byteLength":215892,
			"uri":"object.bin"
		}
	]
}
