{
	"asset":{
		"generator":"Khronos glTF Blender I/O v4.0.43",
		"version":"2.0"
	},
	"scene":0,
	"scenes":[
		{
			"name":"Scene",
			"nodes":[
				0,
				1,
				2,
				3,
				4,
				5,
				6,
				7,
				8,
				9,
				10,
				11,
				12
			]
		}
	],
	"nodes":[
		{
			"mesh":0,
			"name":"wooden_part",
			"translation":[
				7.911443710327148,
				11.552408218383789,
				-0.0853128433227539
			]
		},
		{
			"mesh":1,
			"name":"roof_tile_1",
			"rotation":[
				0.20746542513370514,
				0.6784632802009583,
				0.2049720585346222,
				0.6742641925811768
			],
			"scale":[
				1.5194214582443237,
				1.5194214582443237,
				1.5194215774536133
			],
			"translation":[
				-0.04896259307861328,
				22.32888412475586,
				5.89475679397583
			]
		},
		{
			"mesh":2,
			"name":"roof_tile_2",
			"rotation":[
				0.6659923195838928,
				-0.24470213055610657,
				-0.6616607308387756,
				0.24244625866413116
			],
			"scale":[
				1.5194214582443237,
				1.5194214582443237,
				1.5194215774536133
			],
			"translation":[
				0.050376877188682556,
				21.9046688079834,
				-5.830765247344971
			]
		},
		{
			"mesh":3,
			"name":"Circle",
			"scale":[
				3.500537872314453,
				3.500537872314453,
				3.500537872314453
			],
			"translation":[
				0,
				-0.6277122497558594,
				0
			]
		},
		{
			"mesh":4,
			"name":"Plane",
			"scale":[
				-278.3533935546875,
				-278.3533935546875,
				-278.3533935546875
			],
			"translation":[
				0,
				-1.4573549032211304,
				0
			]
		},
		{
			"name":"Empty",
			"scale":[
				-5.135482311248779,
				-29.27316665649414,
				-5.135482311248779
			]
		},
		{
			"mesh":5,
			"name":"Cube"
		},
		{
			"mesh":6,
			"name":"Cube.001",
			"rotation":[
				0,
				-0.5156494379043579,
				0,
				0.8567997813224792
			],
			"scale":[
				0.9187870025634766,
				0.9187870025634766,
				0.9187870025634766
			],
			"translation":[
				0,
				1.9004058837890625,
				0
			]
		},
		{
			"mesh":7,
			"name":"Cube.002",
			"rotation":[
				0,
				0.013311418704688549,
				0,
				0.9999114274978638
			],
			"scale":[
				0.9187869429588318,
				0.9187870025634766,
				0.9187869429588318
			],
			"translation":[
				0,
				3.736790895462036,
				0
			]
		},
		{
			"mesh":8,
			"name":"Cube.003",
			"rotation":[
				0,
				0.22238381206989288,
				0,
				0.9749591946601868
			],
			"scale":[
				0.9845628142356873,
				0.9845626950263977,
				0.9845628142356873
			],
			"translation":[
				0,
				5.657413959503174,
				0
			]
		},
		{
			"mesh":9,
			"name":"Rock.001",
			"rotation":[
				-0.5848265886306763,
				-0.32571181654930115,
				-0.15471157431602478,
				0.7266044616699219
			],
			"scale":[
				0.7368901968002319,
				0.7368902564048767,
				0.7368902564048767
			],
			"translation":[
				-7.498119354248047,
				-0.2293531894683838,
				-11.656049728393555
			]
		},
		{
			"mesh":10,
			"name":"Rock.002",
			"rotation":[
				-0.5848265886306763,
				-0.32571178674697876,
				-0.1547115594148636,
				0.7266044616699219
			],
			"scale":[
				-1.1800109148025513,
				-1.1800111532211304,
				-1.1800111532211304
			],
			"translation":[
				10.417882919311523,
				0.10927790403366089,
				-5.3342061042785645
			]
		},
		{
			"mesh":11,
			"name":"Rock.003",
			"rotation":[
				-0.5848265886306763,
				-0.32571178674697876,
				-0.1547115296125412,
				0.7266044616699219
			],
			"scale":[
				-1.7778303623199463,
				-1.7778306007385254,
				-1.7778308391571045
			],
			"translation":[
				-7.0442705154418945,
				0.7030492424964905,
				-7.506681442260742
			]
		}
	],
	"animations":[
		{
			"channels":[
				{
					"sampler":0,
					"target":{
						"node":5,
						"path":"rotation"
					}
				}
			],
			"name":"EmptyAction",
			"samplers":[
				{
					"input":45,
					"interpolation":"LINEAR",
					"output":46
				}
			]
		},
		{
			"channels":[
				{
					"sampler":0,
					"target":{
						"node":10,
						"path":"rotation"
					}
				}
			],
			"name":"Rock.001Action",
			"samplers":[
				{
					"input":47,
					"interpolation":"LINEAR",
					"output":48
				}
			]
		},
		{
			"channels":[
				{
					"sampler":0,
					"target":{
						"node":11,
						"path":"rotation"
					}
				}
			],
			"name":"Rock.001Action.001",
			"samplers":[
				{
					"input":47,
					"interpolation":"LINEAR",
					"output":49
				}
			]
		},
		{
			"channels":[
				{
					"sampler":0,
					"target":{
						"node":12,
						"path":"rotation"
					}
				}
			],
			"name":"Rock.001Action.002",
			"samplers":[
				{
					"input":47,
					"interpolation":"LINEAR",
					"output":50
				}
			]
		}
	],
	"materials":[
		{
			"doubleSided":true,
			"name":"wood",
			"pbrMetallicRoughness":{
				"baseColorFactor":[
					0.11297955363988876,
					0.06316249817609787,
					0.015694160014390945,
					1
				],
				"metallicFactor":0
			}
		},
		{
			"doubleSided":true,
			"name":"tiles",
			"pbrMetallicRoughness":{
				"baseColorFactor":[
					0.26292604207992554,
					0.028448261320590973,
					0.019830970093607903,
					1
				],
				"metallicFactor":0.2877193093299866
			}
		},
		{
			"doubleSided":true,
			"name":"Material.001",
			"pbrMetallicRoughness":{
				"baseColorFactor":[
					0.14702607691287994,
					0.12869130074977875,
					0.05693591758608818,
					1
				],
				"metallicFactor":0
			}
		},
		{
			"doubleSided":true,
			"name":"floor",
			"pbrMetallicRoughness":{
				"baseColorFactor":[
					0.03572767227888107,
					0.02857227995991707,
					0.012441541999578476,
					1
				],
				"metallicFactor":0,
				"roughnessFactor":0.5
			}
		},
		{
			"doubleSided":true,
			"name":"well",
			"pbrMetallicRoughness":{
				"baseColorTexture":{
					"index":0
				},
				"metallicFactor":0,
				"roughnessFactor":0.5
			}
		},
		{
			"doubleSided":true,
			"name":"Material.003",
			"pbrMetallicRoughness":{
				"baseColorFactor":[
					0.2053932249546051,
					0.15828338265419006,
					0.8000000715255737,
					1
				],
				"metallicFactor":0,
				"roughnessFactor":0.5
			}
		},
		{
			"doubleSided":true,
			"name":"Material",
			"pbrMetallicRoughness":{
				"baseColorFactor":[
					0.8000000715255737,
					0.4658813178539276,
					0.7467359900474548,
					1
				],
				"metallicFactor":0,
				"roughnessFactor":0.5
			}
		}
	],
	"meshes":[
		{
			"name":"Cube.004",
			"primitives":[
				{
					"attributes":{
						"POSITION":0,
						"NORMAL":1,
						"TEXCOORD_0":2
					},
					"indices":3,
					"material":0
				}
			]
		},
		{
			"name":"Cube.005",
			"primitives":[
				{
					"attributes":{
						"POSITION":4,
						"NORMAL":5,
						"TEXCOORD_0":6
					},
					"indices":7,
					"material":1
				}
			]
		},
		{
			"name":"Cube.006",
			"primitives":[
				{
					"attributes":{
						"POSITION":8,
						"NORMAL":9,
						"TEXCOORD_0":10
					},
					"indices":7,
					"material":1
				}
			]
		},
		{
			"name":"Circle",
			"primitives":[
				{
					"attributes":{
						"POSITION":11,
						"NORMAL":12,
						"TEXCOORD_0":13
					},
					"indices":14,
					"material":2
				}
			]
		},
		{
			"name":"Plane",
			"primitives":[
				{
					"attributes":{
						"POSITION":15,
						"NORMAL":16,
						"TEXCOORD_0":17
					},
					"indices":18,
					"material":3
				}
			]
		},
		{
			"name":"Cube",
			"primitives":[
				{
					"attributes":{
						"POSITION":19,
						"NORMAL":20,
						"TEXCOORD_0":21
					},
					"indices":22,
					"material":4
				}
			]
		},
		{
			"name":"Cube.001",
			"primitives":[
				{
					"attributes":{
						"POSITION":23,
						"NORMAL":24,
						"TEXCOORD_0":25
					},
					"indices":26,
					"material":4
				}
			]
		},
		{
			"name":"Cube.002",
			"primitives":[
				{
					"attributes":{
						"POSITION":27,
						"NORMAL":28,
						"TEXCOORD_0":29
					},
					"indices":30,
					"material":4
				}
			]
		},
		{
			"name":"Cube.003",
			"primitives":[
				{
					"attributes":{
						"POSITION":31,
						"NORMAL":32,
						"TEXCOORD_0":33
					},
					"indices":34,
					"material":4
				}
			]
		},
		{
			"name":"Icosphere.001",
			"primitives":[
				{
					"attributes":{
						"POSITION":35,
						"NORMAL":36,
						"TEXCOORD_0":37
					},
					"indices":38,
					"material":5
				}
			]
		},
		{
			"name":"Icosphere.002",
			"primitives":[
				{
					"attributes":{
						"POSITION":39,
						"NORMAL":40,
						"TEXCOORD_0":41
					},
					"indices":38,
					"material":5
				}
			]
		},
		{
			"name":"Icosphere.003",
			"primitives":[
				{
					"attributes":{
						"POSITION":42,
						"NORMAL":43,
						"TEXCOORD_0":44
					},
					"indices":38,
					"material":6
				}
			]
		}
	],
	"textures":[
		{
			"sampler":0,
			"source":0
		}
	],
	"images":[
		{
			"mimeType":"image/png",
			"name":"Untitled",
			"uri":"Untitled.png"
		}
	],
	"accessors":[
		{
			"bufferView":0,
			"componentType":5126,
			"count":2339,
			"max":[
				9.165088653564453,
				16.267681121826172,
				9.97537612915039
			],
			"min":[
				-20.865806579589844,
				-12.525571823120117,
				-9.174766540527344
			],
			"type":"VEC3"
		},
		{
			"bufferView":1,
			"componentType":5126,
			"count":2339,
			"type":"VEC3"
		},
		{
			"bufferView":2,
			"componentType":5126,
			"count":2339,
			"type":"VEC2"
		},
		{
			"bufferView":3,
			"componentType":5123,
			"count":8805,
			"type":"SCALAR"
		},
		{
			"bufferView":4,
			"componentType":5126,
			"count":1728,
			"max":[
				4.031993389129639,
				0.05922412872314453,
				6.099531173706055
			],
			"min":[
				-4.000293254852295,
				-0.0550994873046875,
				-6.082765579223633
			],
			"type":"VEC3"
		},
		{
			"bufferView":5,
			"componentType":5126,
			"count":1728,
			"type":"VEC3"
		},
		{
			"bufferView":6,
			"componentType":5126,
			"count":1728,
			"type":"VEC2"
		},
		{
			"bufferView":7,
			"componentType":5123,
			"count":10080,
			"type":"SCALAR"
		},
		{
			"bufferView":8,
			"componentType":5126,
			"count":1728,
			"max":[
				4.031993389129639,
				0.05922412872314453,
				6.099531173706055
			],
			"min":[
				-4.000293254852295,
				-0.0550994873046875,
				-6.082765579223633
			],
			"type":"VEC3"
		},
		{
			"bufferView":9,
			"componentType":5126,
			"count":1728,
			"type":"VEC3"
		},
		{
			"bufferView":10,
			"componentType":5126,
			"count":1728,
			"type":"VEC2"
		},
		{
			"bufferView":11,
			"componentType":5126,
			"count":192,
			"max":[
				4.253288745880127,
				-2.4263297149218488e-08,
				4.253290176391602
			],
			"min":[
				-4.253291606903076,
				-0.11149343103170395,
				-4.253290176391602
			],
			"type":"VEC3"
		},
		{
			"bufferView":12,
			"componentType":5126,
			"count":192,
			"type":"VEC3"
		},
		{
			"bufferView":13,
			"componentType":5126,
			"count":192,
			"type":"VEC2"
		},
		{
			"bufferView":14,
			"componentType":5123,
			"count":1140,
			"type":"SCALAR"
		},
		{
			"bufferView":15,
			"componentType":5126,
			"count":4,
			"max":[
				1,
				0,
				1
			],
			"min":[
				-1,
				0,
				-1
			],
			"type":"VEC3"
		},
		{
			"bufferView":16,
			"componentType":5126,
			"count":4,
			"type":"VEC3"
		},
		{
			"bufferView":17,
			"componentType":5126,
			"count":4,
			"type":"VEC2"
		},
		{
			"bufferView":18,
			"componentType":5123,
			"count":6,
			"type":"SCALAR"
		},
		{
			"bufferView":19,
			"componentType":5126,
			"count":852,
			"max":[
				6.861059188842773,
				1.0593124628067017,
				6.832803249359131
			],
			"min":[
				-6.859395980834961,
				-1.0136985778808594,
				-6.873354911804199
			],
			"type":"VEC3"
		},
		{
			"bufferView":20,
			"componentType":5126,
			"count":852,
			"type":"VEC3"
		},
		{
			"bufferView":21,
			"componentType":5126,
			"count":852,
			"type":"VEC2"
		},
		{
			"bufferView":22,
			"componentType":5123,
			"count":2928,
			"type":"SCALAR"
		},
		{
			"bufferView":23,
			"componentType":5126,
			"count":852,
			"max":[
				6.861059188842773,
				1.056341528892517,
				6.838967323303223
			],
			"min":[
				-6.859395980834961,
				-1.1062378883361816,
				-6.873354911804199
			],
			"type":"VEC3"
		},
		{
			"bufferView":24,
			"componentType":5126,
			"count":852,
			"type":"VEC3"
		},
		{
			"bufferView":25,
			"componentType":5126,
			"count":852,
			"type":"VEC2"
		},
		{
			"bufferView":26,
			"componentType":5123,
			"count":2928,
			"type":"SCALAR"
		},
		{
			"bufferView":27,
			"componentType":5126,
			"count":2084,
			"max":[
				6.861059188842773,
				0.9877229332923889,
				6.832847595214844
			],
			"min":[
				-6.859395980834961,
				-1.0967540740966797,
				-6.873354911804199
			],
			"type":"VEC3"
		},
		{
			"bufferView":28,
			"componentType":5126,
			"count":2084,
			"type":"VEC3"
		},
		{
			"bufferView":29,
			"componentType":5126,
			"count":2084,
			"type":"VEC2"
		},
		{
			"bufferView":30,
			"componentType":5123,
			"count":2928,
			"type":"SCALAR"
		},
		{
			"bufferView":31,
			"componentType":5126,
			"count":2096,
			"max":[
				6.861059188842773,
				1.1947683095932007,
				6.845824718475342
			],
			"min":[
				-6.85894775390625,
				-1.0161720514297485,
				-6.873354911804199
			],
			"type":"VEC3"
		},
		{
			"bufferView":32,
			"componentType":5126,
			"count":2096,
			"type":"VEC3"
		},
		{
			"bufferView":33,
			"componentType":5126,
			"count":2096,
			"type":"VEC2"
		},
		{
			"bufferView":34,
			"componentType":5123,
			"count":2928,
			"type":"SCALAR"
		},
		{
			"bufferView":35,
			"componentType":5126,
			"count":132,
			"max":[
				0.854759693145752,
				1.3008698225021362,
				0.8506399989128113
			],
			"min":[
				-0.8944249749183655,
				-1.011784553527832,
				-0.8506399989128113
			],
			"type":"VEC3"
		},
		{
			"bufferView":36,
			"componentType":5126,
			"count":132,
			"type":"VEC3"
		},
		{
			"bufferView":37,
			"componentType":5126,
			"count":132,
			"type":"VEC2"
		},
		{
			"bufferView":38,
			"componentType":5123,
			"count":210,
			"type":"SCALAR"
		},
		{
			"bufferView":39,
			"componentType":5126,
			"count":132,
			"max":[
				0.854759693145752,
				1.3008698225021362,
				0.8506399989128113
			],
			"min":[
				-0.8944249749183655,
				-1.011784553527832,
				-0.8506399989128113
			],
			"type":"VEC3"
		},
		{
			"bufferView":40,
			"componentType":5126,
			"count":132,
			"type":"VEC3"
		},
		{
			"bufferView":41,
			"componentType":5126,
			"count":132,
			"type":"VEC2"
		},
		{
			"bufferView":42,
			"componentType":5126,
			"count":132,
			"max":[
				0.854759693145752,
				1.3008698225021362,
				0.8506399989128113
			],
			"min":[
				-0.8944249749183655,
				-1.011784553527832,
				-0.8506399989128113
			],
			"type":"VEC3"
		},
		{
			"bufferView":43,
			"componentType":5126,
			"count":132,
			"type":"VEC3"
		},
		{
			"bufferView":44,
			"componentType":5126,
			"count":132,
			"type":"VEC2"
		},
		{
			"bufferView":45,
			"componentType":5126,
			"count":240,
			"max":[
				10
			],
			"min":[
				0.041666666666666664
			],
			"type":"SCALAR"
		},
		{
			"bufferView":46,
			"componentType":5126,
			"count":240,
			"type":"VEC4"
		},
		{
			"bufferView":47,
			"componentType":5126,
			"count":241,
			"max":[
				10
			],
			"min":[
				0
			],
			"type":"SCALAR"
		},
		{
			"bufferView":48,
			"componentType":5126,
			"count":241,
			"type":"VEC4"
		},
		{
			"bufferView":49,
			"componentType":5126,
			"count":241,
			"type":"VEC4"
		},
		{
			"bufferView":50,
			"componentType":5126,
			"count":241,
			"type":"VEC4"
		}
	],
	"bufferViews":[
		{
			"buffer":0,
			"byteLength":28068,
			"byteOffset":0,
			"target":34962
		},
		{
			"buffer":0,
			"byteLength":28068,
			"byteOffset":28068,
			"target":34962
		},
		{
			"buffer":0,
			"byteLength":18712,
			"byteOffset":56136,
			"target":34962
		},
		{
			"buffer":0,
			"byteLength":17610,
			"byteOffset":74848,
			"target":34963
		},
		{
			"buffer":0,
			"byteLength":20736,
			"byteOffset":92460,
			"target":34962
		},
		{
			"buffer":0,
			"byteLength":20736,
			"byteOffset":113196,
			"target":34962
		},
		{
			"buffer":0,
			"byteLength":13824,
			"byteOffset":133932,
			"target":34962
		},
		{
			"buffer":0,
			"byteLength":20160,
			"byteOffset":147756,
			"target":34963
		},
		{
			"buffer":0,
			"byteLength":20736,
			"byteOffset":167916,
			"target":34962
		},
		{
			"buffer":0,
			"byteLength":20736,
			"byteOffset":188652,
			"target":34962
		},
		{
			"buffer":0,
			"byteLength":13824,
			"byteOffset":209388,
			"target":34962
		},
		{
			"buffer":0,
			"byteLength":2304,
			"byteOffset":223212,
			"target":34962
		},
		{
			"buffer":0,
			"byteLength":2304,
			"byteOffset":225516,
			"target":34962
		},
		{
			"buffer":0,
			"byteLength":1536,
			"byteOffset":227820,
			"target":34962
		},
		{
			"buffer":0,
			"byteLength":2280,
			"byteOffset":229356,
			"target":34963
		},
		{
			"buffer":0,
			"byteLength":48,
			"byteOffset":231636,
			"target":34962
		},
		{
			"buffer":0,
			"byteLength":48,
			"byteOffset":231684,
			"target":34962
		},
		{
			"buffer":0,
			"byteLength":32,
			"byteOffset":231732,
			"target":34962
		},
		{
			"buffer":0,
			"byteLength":12,
			"byteOffset":231764,
			"target":34963
		},
		{
			"buffer":0,
			"byteLength":10224,
			"byteOffset":231776,
			"target":34962
		},
		{
			"buffer":0,
			"byteLength":10224,
			"byteOffset":242000,
			"target":34962
		},
		{
			"buffer":0,
			"byteLength":6816,
			"byteOffset":252224,
			"target":34962
		},
		{
			"buffer":0,
			"byteLength":5856,
			"byteOffset":259040,
			"target":34963
		},
		{
			"buffer":0,
			"byteLength":10224,
			"byteOffset":264896,
			"target":34962
		},
		{
			"buffer":0,
			"byteLength":10224,
			"byteOffset":275120,
			"target":34962
		},
		{
			"buffer":0,
			"byteLength":6816,
			"byteOffset":285344,
			"target":34962
		},
		{
			"buffer":0,
			"byteLength":5856,
			"byteOffset":292160,
			"target":34963
		},
		{
			"buffer":0,
			"byteLength":25008,
			"byteOffset":298016,
			"target":34962
		},
		{
			"buffer":0,
			"byteLength":25008,
			"byteOffset":323024,
			"target":34962
		},
		{
			"buffer":0,
			"byteLength":16672,
			"byteOffset":348032,
			"target":34962
		},
		{
			"buffer":0,
			"byteLength":5856,
			"byteOffset":364704,
			"target":34963
		},
		{
			"buffer":0,
			"byteLength":25152,
			"byteOffset":370560,
			"target":34962
		},
		{
			"buffer":0,
			"byteLength":25152,
			"byteOffset":395712,
			"target":34962
		},
		{
			"buffer":0,
			"byteLength":16768,
			"byteOffset":420864,
			"target":34962
		},
		{
			"buffer":0,
			"byteLength":5856,
			"byteOffset":437632,
			"target":34963
		},
		{
			"buffer":0,
			"byteLength":1584,
			"byteOffset":443488,
			"target":34962
		},
		{
			"buffer":0,
			"byteLength":1584,
			"byteOffset":445072,
			"target":34962
		},
		{
			"buffer":0,
			"byteLength":1056,
			"byteOffset":446656,
			"target":34962
		},
		{
			"buffer":0,
			"byteLength":420,
			"byteOffset":447712,
			"target":34963
		},
		{
			"buffer":0,
			"byteLength":1584,
			"byteOffset":448132,
			"target":34962
		},
		{
			"buffer":0,
			"byteLength":1584,
			"byteOffset":449716,
			"target":34962
		},
		{
			"buffer":0,
			"byteLength":1056,
			"byteOffset":451300,
			"target":34962
		},
		{
			"buffer":0,
			"byteLength":1584,
			"byteOffset":452356,
			"target":34962
		},
		{
			"buffer":0,
			"byteLength":1584,
			"byteOffset":453940,
			"target":34962
		},
		{
			"buffer":0,
			"byteLength":1056,
			"byteOffset":455524,
			"target":34962
		},
		{
			"buffer":0,
			"byteLength":960,
			"byteOffset":456580
		},
		{
			"buffer":0,
			"byteLength":3840,
			"byteOffset":457540
		},
		{
			"buffer":0,
			"byteLength":964,
			"byteOffset":461380
		},
		{
			"buffer":0,
			"byteLength":3856,
			"byteOffset":462344
		},
		{
			"buffer":0,
			"byteLength":3856,
			"byteOffset":466200
		},
		{
			"buffer":0,
			"byteLength":3856,
			"byteOffset":470056
		}
	],
	"samplers":[
		{
			"magFilter":9729,
			"minFilter":9987
		}
	],
	"buffers":[
		{
			"byteLength":473912,
			"uri":"object.bin"
		}
	]
}
