{
	"asset":{
		"generator":"Khronos glTF Blender I/O v4.0.43",
		"version":"2.0"
	},
	"scene":0,
	"scenes":[
		{
			"name":"Scene",
			"nodes":[
				0,
				1,
				2,
				3,
				4,
				5
			]
		}
	],
	"nodes":[
		{
			"mesh":0,
			"name":"UnifiiedBarrel",
			"rotation":[
				0,
				-0.8897433876991272,
				0,
				0.4564610719680786
			],
			"translation":[
				1.818558692932129,
				0.040810927748680115,
				0
			]
		},
		{
			"mesh":1,
			"name":"Floor",
			"scale":[
				57.10196304321289,
				57.10196304321289,
				57.10196304321289
			],
			"translation":[
				0,
				-1.0134941339492798,
				0
			]
		},
		{
			"mesh":2,
			"name":"Barrel",
			"translation":[
				6.408483505249023,
				0,
				0
			]
		},
		{
			"mesh":3,
			"name":"BarrelMetalSheets",
			"translation":[
				6.408483505249023,
				0,
				0
			]
		},
		{
			"mesh":4,
			"name":"Barrel.001",
			"rotation":[
				0.11372942477464676,
				0.12064439803361893,
				0.6764520406723022,
				0.717581570148468
			],
			"translation":[
				4.0845136642456055,
				0.0005294728907756507,
				1.8414039611816406
			]
		},
		{
			"mesh":5,
			"name":"BarrelMetalSheets.001",
			"rotation":[
				0.11372942477464676,
				0.12064439803361893,
				0.6764520406723022,
				0.717581570148468
			],
			"translation":[
				4.0845136642456055,
				0.0005294728907756507,
				1.8414039611816406
			]
		}
	],
	"materials":[
		{
			"doubleSided":true,
			"name":"wood",
			"pbrMetallicRoughness":{
				"baseColorFactor":[
					0.14741124212741852,
					0.08010245114564896,
					0.02941104955971241,
					1
				],
				"metallicFactor":0,
				"roughnessFactor":0.8894736766815186
			}
		},
		{
			"doubleSided":true,
			"name":"metal",
			"pbrMetallicRoughness":{
				"baseColorFactor":[
					0.09180758148431778,
					0.09180758148431778,
					0.09180758148431778,
					1
				],
				"metallicFactor":0.9298245906829834,
				"roughnessFactor":0.6684210300445557
			}
		},
		{
			"doubleSided":true,
			"name":"VeneerWhiteOakRandomMatched001_PREVIEW",
			"pbrMetallicRoughness":{}
		}
	],
	"meshes":[
		{
			"name":"Cylinder",
			"primitives":[
				{
					"attributes":{
						"POSITION":0,
						"NORMAL":1,
						"TEXCOORD_0":2
					},
					"indices":3,
					"material":0
				},
				{
					"attributes":{
						"POSITION":4,
						"NORMAL":5,
						"TEXCOORD_0":6
					},
					"indices":7,
					"material":1
				}
			]
		},
		{
			"name":"Plane",
			"primitives":[
				{
					"attributes":{
						"POSITION":8,
						"NORMAL":9,
						"TEXCOORD_0":10
					},
					"indices":11,
					"material":2
				}
			]
		},
		{
			"name":"Cylinder.001",
			"primitives":[
				{
					"attributes":{
						"POSITION":12,
						"NORMAL":13,
						"TEXCOORD_0":14
					},
					"indices":15,
					"material":0
				}
			]
		},
		{
			"name":"Cylinder.002",
			"primitives":[
				{
					"attributes":{
						"POSITION":16,
						"NORMAL":17,
						"TEXCOORD_0":18
					},
					"indices":19,
					"material":1
				}
			]
		},
		{
			"name":"Cylinder.003",
			"primitives":[
				{
					"attributes":{
						"POSITION":20,
						"NORMAL":21,
						"TEXCOORD_0":22
					},
					"indices":15,
					"material":0
				}
			]
		},
		{
			"name":"Cylinder.004",
			"primitives":[
				{
					"attributes":{
						"POSITION":23,
						"NORMAL":24,
						"TEXCOORD_0":25
					},
					"indices":19,
					"material":1
				}
			]
		}
	],
	"accessors":[
		{
			"bufferView":0,
			"componentType":5126,
			"count":850,
			"max":[
				1.1829420328140259,
				1.0671497583389282,
				1.1829420328140259
			],
			"min":[
				-1.1829420328140259,
				-1.0239156484603882,
				-1.1829420328140259
			],
			"type":"VEC3"
		},
		{
			"bufferView":1,
			"componentType":5126,
			"count":850,
			"type":"VEC3"
		},
		{
			"bufferView":2,
			"componentType":5126,
			"count":850,
			"type":"VEC2"
		},
		{
			"bufferView":3,
			"componentType":5123,
			"count":1800,
			"type":"SCALAR"
		},
		{
			"bufferView":4,
			"componentType":5126,
			"count":423,
			"max":[
				1.2290493249893188,
				0.5469503402709961,
				1.2290493249893188
			],
			"min":[
				-1.2290493249893188,
				-0.5469503402709961,
				-1.2290493249893188
			],
			"type":"VEC3"
		},
		{
			"bufferView":5,
			"componentType":5126,
			"count":423,
			"type":"VEC3"
		},
		{
			"bufferView":6,
			"componentType":5126,
			"count":423,
			"type":"VEC2"
		},
		{
			"bufferView":7,
			"componentType":5123,
			"count":1014,
			"type":"SCALAR"
		},
		{
			"bufferView":8,
			"componentType":5126,
			"count":4,
			"max":[
				1,
				0,
				1
			],
			"min":[
				-1,
				0,
				-1
			],
			"type":"VEC3"
		},
		{
			"bufferView":9,
			"componentType":5126,
			"count":4,
			"type":"VEC3"
		},
		{
			"bufferView":10,
			"componentType":5126,
			"count":4,
			"type":"VEC2"
		},
		{
			"bufferView":11,
			"componentType":5123,
			"count":6,
			"type":"SCALAR"
		},
		{
			"bufferView":12,
			"componentType":5126,
			"count":750,
			"max":[
				1.1829420328140259,
				1.0301133394241333,
				1.1829420328140259
			],
			"min":[
				-1.1829420328140259,
				-1.0349125862121582,
				-1.1829420328140259
			],
			"type":"VEC3"
		},
		{
			"bufferView":13,
			"componentType":5126,
			"count":750,
			"type":"VEC3"
		},
		{
			"bufferView":14,
			"componentType":5126,
			"count":750,
			"type":"VEC2"
		},
		{
			"bufferView":15,
			"componentType":5123,
			"count":1212,
			"type":"SCALAR"
		},
		{
			"bufferView":16,
			"componentType":5126,
			"count":568,
			"max":[
				1.2401611804962158,
				0.5507566928863525,
				1.2401611804962158
			],
			"min":[
				-1.2401612997055054,
				-0.5469503402709961,
				-1.2401611804962158
			],
			"type":"VEC3"
		},
		{
			"bufferView":17,
			"componentType":5126,
			"count":568,
			"type":"VEC3"
		},
		{
			"bufferView":18,
			"componentType":5126,
			"count":568,
			"type":"VEC2"
		},
		{
			"bufferView":19,
			"componentType":5123,
			"count":1224,
			"type":"SCALAR"
		},
		{
			"bufferView":20,
			"componentType":5126,
			"count":750,
			"max":[
				1.1829420328140259,
				1.0301133394241333,
				1.1829420328140259
			],
			"min":[
				-1.1829420328140259,
				-1.0349125862121582,
				-1.1829420328140259
			],
			"type":"VEC3"
		},
		{
			"bufferView":21,
			"componentType":5126,
			"count":750,
			"type":"VEC3"
		},
		{
			"bufferView":22,
			"componentType":5126,
			"count":750,
			"type":"VEC2"
		},
		{
			"bufferView":23,
			"componentType":5126,
			"count":568,
			"max":[
				1.2401611804962158,
				0.5507566928863525,
				1.2401611804962158
			],
			"min":[
				-1.2401612997055054,
				-0.5469503402709961,
				-1.2401611804962158
			],
			"type":"VEC3"
		},
		{
			"bufferView":24,
			"componentType":5126,
			"count":568,
			"type":"VEC3"
		},
		{
			"bufferView":25,
			"componentType":5126,
			"count":568,
			"type":"VEC2"
		}
	],
	"bufferViews":[
		{
			"buffer":0,
			"byteLength":10200,
			"byteOffset":0,
			"target":34962
		},
		{
			"buffer":0,
			"byteLength":10200,
			"byteOffset":10200,
			"target":34962
		},
		{
			"buffer":0,
			"byteLength":6800,
			"byteOffset":20400,
			"target":34962
		},
		{
			"buffer":0,
			"byteLength":3600,
			"byteOffset":27200,
			"target":34963
		},
		{
			"buffer":0,
			"byteLength":5076,
			"byteOffset":30800,
			"target":34962
		},
		{
			"buffer":0,
			"byteLength":5076,
			"byteOffset":35876,
			"target":34962
		},
		{
			"buffer":0,
			"byteLength":3384,
			"byteOffset":40952,
			"target":34962
		},
		{
			"buffer":0,
			"byteLength":2028,
			"byteOffset":44336,
			"target":34963
		},
		{
			"buffer":0,
			"byteLength":48,
			"byteOffset":46364,
			"target":34962
		},
		{
			"buffer":0,
			"byteLength":48,
			"byteOffset":46412,
			"target":34962
		},
		{
			"buffer":0,
			"byteLength":32,
			"byteOffset":46460,
			"target":34962
		},
		{
			"buffer":0,
			"byteLength":12,
			"byteOffset":46492,
			"target":34963
		},
		{
			"buffer":0,
			"byteLength":9000,
			"byteOffset":46504,
			"target":34962
		},
		{
			"buffer":0,
			"byteLength":9000,
			"byteOffset":55504,
			"target":34962
		},
		{
			"buffer":0,
			"byteLength":6000,
			"byteOffset":64504,
			"target":34962
		},
		{
			"buffer":0,
			"byteLength":2424,
			"byteOffset":70504,
			"target":34963
		},
		{
			"buffer":0,
			"byteLength":6816,
			"byteOffset":72928,
			"target":34962
		},
		{
			"buffer":0,
			"byteLength":6816,
			"byteOffset":79744,
			"target":34962
		},
		{
			"buffer":0,
			"byteLength":4544,
			"byteOffset":86560,
			"target":34962
		},
		{
			"buffer":0,
			"byteLength":2448,
			"byteOffset":91104,
			"target":34963
		},
		{
			"buffer":0,
			"byteLength":9000,
			"byteOffset":93552,
			"target":34962
		},
		{
			"buffer":0,
			"byteLength":9000,
			"byteOffset":102552,
			"target":34962
		},
		{
			"buffer":0,
			"byteLength":6000,
			"byteOffset":111552,
			"target":34962
		},
		{
			"buffer":0,
			"byteLength":6816,
			"byteOffset":117552,
			"target":34962
		},
		{
			"buffer":0,
			"byteLength":6816,
			"byteOffset":124368,
			"target":34962
		},
		{
			"buffer":0,
			"byteLength":4544,
			"byteOffset":131184,
			"target":34962
		}
	],
	"buffers":[
		{
			"byteLength":135728,
			"uri":"object.bin"
		}
	]
}
